# AST/ASF file generated using VICON BodyLanguage
# -----------------------------------------------
:version 1.10
:name VICON
:units
  mass 1.0
  length 0.45
  angle deg
:documentation
   .ast/.asf automatically generated from VICON data using
   VICON BodyBuilder and BodyLanguage model FoxedUp or BRILLIANT.MOD
:root
   order TX TY TZ RX RY RZ
   axis XYZ
   position 0 0 0  
   orientation 0 0 0 
:bonedata
  begin
     id 1 
     name lhipjoint
     direction 0.547975 -0.797114 0.253638 
     length 2.36201 
     axis 0 0 0  XYZ
  end
  begin
     id 2 
     name lfemur
     direction 0.34202 -0.939693 0  
     length 7.69075  
     axis 0 0 20  XYZ
    dof rx ry rz
    limits (-160.0 20.0)
           (-70.0 70.0)
           (-60.0 70.0)
  end
  begin
     id 3 
     name ltibia
     direction 0.34202 -0.939693 0   
     length 7.91399   
     axis 0 0 20   XYZ
    dof rx
    limits (-10.0 170.0)
  end
  begin
     id 4 
     name lfoot
     direction 0.0705293 -0.193778 0.978507   
     length 2.13618   
     axis -90 7.62852e-016 20   XYZ
    dof rx rz
    limits (-45.0 90.0)
           (-70.0 20.0)
  end
  begin
     id 5 
     name ltoes
     direction 1.53592e-011 -4.21925e-011 1   
     length 1.07518   
     axis -90 7.62852e-016 20   XYZ
    dof rx
    limits (-90.0 20.0)
  end
  begin
     id 6 
     name rhipjoint
     direction -0.57 -0.782963 0.249136   
     length 2.4047  
     axis 0 0 0  XYZ 
  end
  begin
     id 7 
     name rfemur
     direction -0.34202 -0.939693 0   
     length 7.51486   
     axis 0 0 -20   XYZ
    dof rx ry rz
    limits (-160.0 20.0)
           (-70.0 70.0)
           (-70.0 60.0)
  end
  begin
     id 8 
     name rtibia
     direction -0.34202 -0.939693 0   
     length 8.08317   
     axis 0 0 -20   XYZ
    dof rx
    limits (-10.0 170.0)
 end
 begin
     id 9 
     name rfoot
     direction -0.104954 -0.281256 0.953876   
     length 2.30343  
     axis -90 -7.62852e-016 -20   XYZ
    dof rx rz
    limits (-45.0 90.0)
           (-20.0 70.0)
  end
  begin
     id 10 
     name rtoes
     direction -1.53556e-011 -4.21922e-011 1   
     length 1.14803   
     axis -90 -7.62852e-016 -20   XYZ
    dof rx
    limits (-90.0 20.0)
  end
  begin
     id 11 
     name lowerback
     direction -0.0152855 0.99353 -0.11254   
     length 2.05311   
     axis 0 0 0   XYZ
    dof rx ry rz
    limits (-20.0 45.0)
           (-30.0 30.0)
           (-30.0 30.0)
  end
  begin
     id 12 
     name upperback
     direction -0.00157509 0.999443 -0.033332   
     length 2.06353   
     axis 0 0 0   XYZ
    dof rx ry rz
    limits (-20.0 45.0)
           (-30.0 30.0)
           (-30.0 30.0)
  end
  begin
     id 13 
     name thorax
     direction 0.00577788 0.999804 0.0189484   
     length 2.08472   
     axis 0 0 0   XYZ
    dof rx ry rz
    limits (-20.0 45.0)
           (-30.0 30.0)
           (-30.0 30.0)
  end
  begin
     id 14 
     name lowerneck
     direction -1.09301e-005 0.994719 0.10264   
     length 1.76249   
     axis 0 0 0   XYZ
    dof rx ry rz
    limits (-20.0 45.0)
           (-30.0 30.0)
           (-30.0 30.0)
  end
  begin
     id 15 
     name upperneck
     direction 0.0495018 0.988526 -0.142706   
     length 1.77897   
     axis 0 0 0   XYZ
    dof rx ry rz
    limits (-20.0 45.0)
           (-30.0 30.0)
           (-30.0 30.0)
  end
  begin
     id 16
     name head
     direction 0.0142736 0.998114 -0.0597101  
     length 1.78934  
     axis 0 0 0   XYZ
    dof rx ry rz
    limits (-20.0 45.0)
           (-30.0 30.0)
           (-30.0 30.0)
  end
  begin
     id 17 
     name lclavicle
     direction 0.918111 0.396107 -0.0130883  
     length 3.37276  
     axis 0 0 0   XYZ
    dof ry rz
    limits (-20.0 10.0)
           (0.0 20.0)
  end
  begin
     id 18 
     name lhumerus
     direction 1 -4.48975e-011 -3.26108e-027   
     length 5.34298   
     axis 180 -30 -90   XYZ
    dof rx ry rz
    limits (-60.0 90.0)
           (-90.0 90.0)
           (-90.0 90.0)
  end
  begin
     id 19
     name lradius
     direction 1 -4.48964e-011 -8.84413e-028   
     length 3.67262   
     axis 180 -30 -90   XYZ
    dof rx
    limits (-10.0 170.0)
  end
  begin
     id 20
     name lwrist
     direction 1 -4.48991e-011 -1.24264e-027   
     length 1.83631   
     axis -2.17013e-015 90 90   XYZ
    dof ry
    limits (-180.0 0.0)
 end
  begin
     id 21 
     name lhand
     direction 1 -4.48855e-011 -2.48528e-027   
     length 0.599298   
     axis 1.58582e-015 90 90   XYZ
    dof rx rz
    limits (-90.0 90.0)
           (-45.0 45.0)
  end
  begin
     id 22 
     name lfingers
     direction 1 -4.48811e-011 -4.97056e-027   
     length 0.48317   
     axis 3.17164e-015 90 90   XYZ
    dof rx
    limits (0.0 90.0)
  end
  begin
     id 23
     name lthumb
     direction 0.707107 -6.34882e-011 0.707107   
     length 0.693738   
     axis -90 45 2.85299e-015   XYZ
    dof rx rz
    limits (-45.0 45.0)
           (-45.0 45.0)
  end
  begin
     id 24 
     name rclavicle
     direction -0.920511 0.384752 -0.0680135   
     length 3.43787  
     axis 0 0 0   XYZ 
    dof ry rz
    limits (-10.0 20.0)
           (-20.0 0.0)
  end
  begin
     id 25 
     name rhumerus
     direction -0.999976 -0.00330524 0.00603274  
     length 5.5498   
     axis 180 30 90   XYZ
    dof rx ry rz
    limits (-90.0 60.0)
           (-90.0 90.0)
           (-90.0 90.0)
  end
  begin
     id 26 
     name rradius
     direction -1 -4.48967e-011 8.62438e-027   
     length 3.69401   
     axis 180 30 90   XYZ
    dof rx
    limits (-10.0 170.0)
  end
  begin
     id 27 
     name rwrist
     direction -1 -4.4897e-011 9.54866e-027   
     length 1.84701   
     axis -7.69462e-015 -90 -90   XYZ
    dof ry
    limits (-180.0 0.0)
  end
  begin
     id 28
     name rhand
     direction -1 -4.48982e-011 1.90973e-026   
     length 0.638113   
     axis -1.21857e-014 -90 -90   XYZ
    dof rx rz
    limits (-90.0 90.0)
           (-45.0 45.0)
  end
  begin
     id 29
     name rfingers
     direction -1 -4.48936e-011 3.81946e-026   
     length 0.514463   
     axis -2.43714e-014 -90 -90   XYZ
    dof rx
    limits (0.0 90.0)
  end
  begin
     id 30
     name rthumb
     direction -0.707107 -6.34942e-011 0.707107   
     length 0.738669   
     axis -90 -45 -2.85299e-015   XYZ
    dof rx rz
    limits (-45.0 45.0)
           (-45.0 45.0)
  end
:hierarchy
  begin
    root lhipjoint rhipjoint lowerback
    lhipjoint lfemur
    lfemur ltibia
    ltibia lfoot
    lfoot ltoes
    rhipjoint rfemur
    rfemur rtibia
    rtibia rfoot
    rfoot rtoes
    lowerback upperback
    upperback thorax
    thorax lowerneck lclavicle rclavicle
    lowerneck upperneck
    upperneck head
    lclavicle lhumerus
    lhumerus lradius
    lradius lwrist
    lwrist lhand lthumb
    lhand lfingers
    rclavicle rhumerus
    rhumerus rradius
    rradius rwrist
    rwrist rhand rthumb
    rhand rfingers
  end

#!OML:ASF F:\twosubjects\two\Thursday\Session 1\Rory.ASF
:FULLY-SPECIFIED
:DEGREES
176
root 7.57041 18.3588 -9.95049 0.875742 -4.97481 4.34735
lowerback -2.61209 0.429467 -3.25697
upperback 1.00707 0.712374 -0.935035
thorax 2.47249 0.311078 0.898191
lowerneck -9.55581 -4.30167 -2.64032
upperneck 35.0159 -10.5742 12.9341
head 14.623 -3.36633 4.18876
rclavicle -9.00122e-015 -1.23246e-014
rhumerus -35.3054 -19.0784 -75.8946
rradius 25.1281
rwrist 25.4418
rhand -25.7389 25.6523
rfingers 7.12502
rthumb 0.797953 -4.32593
lclavicle -9.00122e-015 -1.23246e-014
lhumerus -30.438 25.0655 78.3065
lradius 25.0677
lwrist -25.454
lhand -10.7301 30.3066
lfingers 7.12502
lthumb 15.2805 59.7222
rfemur -5.9874 6.28594 15.8494
rtibia 21.0408
rfoot -14.581 -15.6207
rtoes 4.48287
lfemur -7.74294 -3.0151 -19.3724
ltibia 16.9871
lfoot -10.3299 5.1602
ltoes 9.1863
177
root 7.57541 18.3555 -9.94301 0.802588 -5.21 4.22501
lowerback -2.64622 0.462245 -3.18233
upperback 1.00132 0.752716 -0.851264
thorax 2.48388 0.331603 0.944661
lowerneck -9.48909 -4.30767 -2.74459
upperneck 35.0658 -10.5815 12.9694
head 14.6408 -3.38108 4.22583
rclavicle 6.32384e-015 8.34896e-015
rhumerus -35.2598 -18.7313 -76.0148
rradius 25.1253
rwrist 25.0596
rhand -25.7331 25.8977
rfingers 7.12502
rthumb 0.803561 -4.08054
lclavicle 6.32384e-015 8.34896e-015
lhumerus -30.5355 25.6258 78.2111
lradius 25.1922
lwrist -25.6981
lhand -9.99855 30.2407
lfingers 7.12502
lthumb 15.985 59.6011
rfemur -5.92079 6.47435 15.9691
rtibia 21.0392
rfoot -14.534 -15.5933
rtoes 4.10235
lfemur -7.59909 -3.03541 -19.2564
ltibia 16.9702
lfoot -10.4833 5.35811
ltoes 7.26401
178
root 7.57767 18.3533 -9.9407 0.845041 -5.31894 4.22169
lowerback -2.70764 0.435945 -3.2915
upperback 0.93637 0.720976 -0.784349
thorax 2.45077 0.31465 1.07332
lowerneck -9.39707 -4.29553 -2.77264
upperneck 35.0665 -10.5532 12.9561
head 14.616 -3.37903 4.23093
rclavicle -1.32192e-014 1.2921e-014
rhumerus -35.3247 -18.3921 -76.1199
rradius 25.3989
rwrist 24.915
rhand -25.5058 25.6744
rfingers 7.12502
rthumb 1.02306 -4.30291
lclavicle -1.32192e-014 1.2921e-014
lhumerus -30.57 25.5994 78.352
lradius 25.3452
lwrist -25.4475
lhand -9.61318 30.2829
lfingers 7.12502
lthumb 16.3561 59.6132
rfemur -6.04548 6.47202 15.9415
rtibia 21.112
rfoot -14.5337 -15.4297
rtoes 3.84733
lfemur -7.60107 -2.99363 -19.2493
ltibia 16.8643
lfoot -10.417 5.40959
ltoes 2.21596
179
root 7.57693 18.3539 -9.94132 0.922634 -5.32739 4.54335
lowerback -2.76695 0.384895 -3.74154
upperback 0.850173 0.670136 -0.799515
thorax 2.39336 0.2844 1.30734
lowerneck -9.23985 -4.28512 -2.73076
upperneck 34.8643 -10.4753 12.8569
head 14.4614 -3.36579 4.18297
rclavicle -1.80149e-016 -1.72943e-014
rhumerus -35.3773 -18.1052 -76.1885
rradius 25.6799
rwrist 24.7503
rhand -25.2742 25.4838
rfingers 7.12502
rthumb 1.24672 -4.49232
lclavicle -1.80149e-016 -1.72943e-014
lhumerus -30.5207 25.1172 78.6282
lradius 25.385
lwrist -25.0694
lhand -9.66575 30.1585
lfingers 7.12502
lthumb 16.3055 59.493
rfemur -6.23868 6.42218 15.5628
rtibia 21.2122
rfoot -14.5883 -15.317
rtoes 3.71687
lfemur -7.67576 -2.85756 -19.6041
ltibia 16.7407
lfoot -10.1994 5.37383
ltoes -1.19337
180
root 7.58048 18.3528 -9.935 0.833923 -5.47001 4.80913
lowerback -2.77356 0.379639 -4.02829
upperback 0.825892 0.674112 -0.836278
thorax 2.36956 0.283096 1.4301
lowerneck -9.16879 -4.24324 -2.74052
upperneck 34.7585 -10.3828 12.8309
head 14.3811 -3.3374 4.18272
rclavicle -7.46064e-015 1.05356e-014
rhumerus -35.4046 -17.7543 -76.3159
rradius 25.8143
rwrist 24.2583
rhand -25.4399 25.9695
rfingers 7.12502
rthumb 1.08673 -4.00746
lclavicle -7.46064e-015 1.05356e-014
lhumerus -30.6472 25.1858 78.6501
lradius 25.5546
lwrist -25.2029
lhand -9.24936 30.721
lfingers 7.12502
lthumb 16.7064 60.0222
rfemur -6.1792 6.41476 15.2553
rtibia 21.2745
rfoot -14.6879 -15.2164
rtoes 3.64243
lfemur -7.53209 -2.89066 -19.9234
ltibia 16.6832
lfoot -10.2353 5.57531
ltoes -1.26133
181
root 7.58551 18.3561 -9.927 0.802286 -5.64991 4.80304
lowerback -2.83571 0.39897 -4.00188
upperback 0.804972 0.701431 -0.835418
thorax 2.38173 0.297135 1.41798
lowerneck -9.07197 -4.18715 -2.83943
upperneck 34.6342 -10.3219 13.0178
head 14.3136 -3.31106 4.28419
rclavicle -8.18123e-015 -1.5704e-014
rhumerus -35.416 -17.5401 -76.4714
rradius 25.9536
rwrist 23.7193
rhand -25.8146 26.3805
rfingers 7.12502
rthumb 0.724816 -3.598
lclavicle -8.18123e-015 -1.5704e-014
lhumerus -30.7805 25.1988 78.6997
lradius 25.6736
lwrist -24.6448
lhand -10.0225 30.4514
lfingers 7.12502
lthumb 15.962 59.8137
rfemur -6.13324 6.38658 15.2389
rtibia 21.2927
rfoot -14.7355 -15.0894
rtoes 3.20909
lfemur -7.40022 -3.00763 -19.9392
ltibia 16.6582
lfoot -10.2767 5.80474
ltoes -0.458446
182
root 7.58709 18.3582 -9.92103 0.817616 -5.79066 4.66099
lowerback -2.90539 0.416508 -3.90437
upperback 0.810018 0.723248 -0.767621
thorax 2.42509 0.308117 1.4349
lowerneck -8.99515 -4.16658 -2.93767
upperneck 34.4881 -10.2891 13.1447
head 14.2387 -3.30355 4.35366
rclavicle -4.93234e-015 1.03368e-014
rhumerus -35.332 -17.3983 -76.5854
rradius 26.0753
rwrist 23.403
rhand -26.0185 26.5271
rfingers 7.12502
rthumb 0.527862 -3.45194
lclavicle -4.93234e-015 1.03368e-014
lhumerus -30.747 24.7918 79.012
lradius 25.6782
lwrist -23.1475
lhand -11.683 29.3273
lfingers 7.12502
lthumb 14.3625 58.8105
rfemur -6.13746 6.43189 15.3764
rtibia 21.2717
rfoot -14.7665 -14.9891
rtoes 3.20397
lfemur -7.34379 -2.92519 -19.8008
ltibia 16.6689
lfoot -10.3004 5.87466
ltoes 1.96296
183
root 7.58711 18.353 -9.91879 0.745419 -5.89364 4.59471
lowerback -2.86659 0.426964 -3.91784
upperback 0.825773 0.734831 -0.707197
thorax 2.41796 0.313179 1.50482
lowerneck -9.14683 -4.16454 -2.9683
upperneck 34.6079 -10.2993 13.1323
head 14.3319 -3.30308 4.35735
rclavicle 2.69602e-015 -1.64991e-014
rhumerus -35.3114 -17.1897 -76.6573
rradius 26.1988
rwrist 23.2158
rhand -25.9396 26.6679
rfingers 7.12502
rthumb 0.604085 -3.31097
lclavicle 2.69602e-015 -1.64991e-014
lhumerus -30.8381 24.7399 79.12
lradius 25.9246
lwrist -23.2299
lhand -11.7199 29.0025
lfingers 7.12502
lthumb 14.3269 58.4882
rfemur -6.04994 6.5825 15.4507
rtibia 21.2147
rfoot -14.7766 -14.9944
rtoes 4.33418
lfemur -7.29412 -2.81886 -19.734
ltibia 16.7415
lfoot -10.5078 5.84957
ltoes 4.30542
184
root 7.58868 18.3501 -9.9195 0.686877 -5.94328 4.68049
lowerback -2.82543 0.434215 -4.04451
upperback 0.834605 0.748072 -0.734743
thorax 2.40218 0.318257 1.54761
lowerneck -9.12677 -4.19567 -2.96557
upperneck 34.4188 -10.3526 13.2308
head 14.2538 -3.32206 4.37942
rclavicle -1.39087e-014 1.43125e-014
rhumerus -35.3139 -17.0204 -76.7636
rradius 26.3681
rwrist 22.9811
rhand -25.7344 26.4795
rfingers 7.12502
rthumb 0.802223 -3.49878
lclavicle -1.39087e-014 1.43125e-014
lhumerus -31.035 25.1305 78.9415
lradius 26.3533
lwrist -24.97
lhand -10.8626 28.9647
lfingers 7.12502
lthumb 15.1528 58.39
rfemur -5.97918 6.59088 15.3547
rtibia 21.1818
rfoot -14.7356 -14.9329
rtoes -1.97522
lfemur -7.28283 -2.78526 -19.822
ltibia 16.7915
lfoot -10.6462 5.7947
ltoes 4.6125
185
root 7.59084 18.353 -9.91804 0.658752 -6.02949 4.71458
lowerback -2.84836 0.44198 -4.13454
upperback 0.881934 0.764132 -0.721696
thorax 2.46184 0.32303 1.61266
lowerneck -9.03283 -4.21341 -2.93842
upperneck 34.0347 -10.3315 13.2624
head 14.0518 -3.3234 4.36926
rclavicle 1.11692e-014 6.36111e-015
rhumerus -35.17 -16.8598 -76.8886
rradius 26.468
rwrist 22.7356
rhand -25.6969 26.1508
rfingers 7.12502
rthumb 0.838461 -3.82729
lclavicle 1.11692e-014 6.36111e-015
lhumerus -30.9205 25.2557 78.9912
lradius 26.3115
lwrist -25.9444
lhand -10.6773 29.0072
lfingers 7.12502
lthumb 15.3314 58.4189
rfemur -5.94081 6.54803 15.3137
rtibia 21.1874
rfoot -14.6991 -14.8075
rtoes 2.62028
lfemur -7.21579 -2.76426 -19.8658
ltibia 16.786
lfoot -10.5802 5.87871
ltoes 4.47312
186
root 7.59404 18.3544 -9.91558 0.574973 -6.15451 4.73212
lowerback -2.87071 0.452812 -4.23817
upperback 0.996207 0.785305 -0.642066
thorax 2.58886 0.327235 1.7545
lowerneck -9.2269 -4.15443 -2.78877
upperneck 33.8933 -10.1704 13.0224
head 13.9829 -3.25815 4.25375
rclavicle 2.86995e-015 -1.8487e-014
rhumerus -34.8573 -16.7213 -76.9388
rradius 26.4782
rwrist 22.6039
rhand -25.4941 25.8108
rfingers 7.12502
rthumb 1.03435 -4.1664
lclavicle 2.86995e-015 -1.8487e-014
lhumerus -30.6149 25.2391 79.2678
lradius 26.0969
lwrist -26.0569
lhand -10.6527 29.4057
lfingers 7.12502
lthumb 15.355 58.8156
rfemur -5.85974 6.55893 15.2895
rtibia 21.181
rfoot -14.6313 -14.7334
rtoes 5.02476
lfemur -7.07668 -2.69721 -19.9075
ltibia 16.7887
lfoot -10.4504 5.99369
ltoes 1.47351
